TITLE ""
FILE "LR_black_phrase_E_B08.mp3" MP3
  TRACK 01 AUDIO
    TITLE "LR_black_phrase_E_B08_001"
    INDEX 01 00:00:00
  TRACK 02 AUDIO
    TITLE "LR_black_phrase_E_B08_002"
    INDEX 01 00:00:14
  TRACK 03 AUDIO
    TITLE "LR_black_phrase_E_B08_003"
    INDEX 01 00:01:31
  TRACK 04 AUDIO
    TITLE "LR_black_phrase_E_B08_004"
    INDEX 01 00:01:61
  TRACK 05 AUDIO
    TITLE "LR_black_phrase_E_B08_005"
    INDEX 01 00:03:58
  TRACK 06 AUDIO
    TITLE "LR_black_phrase_E_B08_006"
    INDEX 01 00:04:37
  TRACK 07 AUDIO
    TITLE "LR_black_phrase_E_B08_007"
    INDEX 01 00:06:34
  TRACK 08 AUDIO
    TITLE "LR_black_phrase_E_B08_008"
    INDEX 01 00:07:40
  TRACK 09 AUDIO
    TITLE "LR_black_phrase_E_B08_009"
    INDEX 01 00:08:53
  TRACK 10 AUDIO
    TITLE "LR_black_phrase_E_B08_010"
    INDEX 01 00:09:03
  TRACK 11 AUDIO
    TITLE "LR_black_phrase_E_B08_011"
    INDEX 01 00:11:30
  TRACK 12 AUDIO
    TITLE "LR_black_phrase_E_B08_012"
    INDEX 01 00:12:10
  TRACK 13 AUDIO
    TITLE "LR_black_phrase_E_B08_013"
    INDEX 01 00:14:38
  TRACK 14 AUDIO
    TITLE "LR_black_phrase_E_B08_014"
    INDEX 01 00:15:41
  TRACK 15 AUDIO
    TITLE "LR_black_phrase_E_B08_015"
    INDEX 01 00:16:62
  TRACK 16 AUDIO
    TITLE "LR_black_phrase_E_B08_016"
    INDEX 01 00:17:19
  TRACK 17 AUDIO
    TITLE "LR_black_phrase_E_B08_017"
    INDEX 01 00:19:51
  TRACK 18 AUDIO
    TITLE "LR_black_phrase_E_B08_018"
    INDEX 01 00:20:29
  TRACK 19 AUDIO
    TITLE "LR_black_phrase_E_B08_019"
    INDEX 01 00:22:63
  TRACK 20 AUDIO
    TITLE "LR_black_phrase_E_B08_020"
    INDEX 01 00:23:58
  TRACK 21 AUDIO
    TITLE "LR_black_phrase_E_B08_021"
    INDEX 01 00:25:00
  TRACK 22 AUDIO
    TITLE "LR_black_phrase_E_B08_022"
    INDEX 01 00:25:22
  TRACK 23 AUDIO
    TITLE "LR_black_phrase_E_B08_023"
    INDEX 01 00:27:58
  TRACK 24 AUDIO
    TITLE "LR_black_phrase_E_B08_024"
    INDEX 01 00:28:30
  TRACK 25 AUDIO
    TITLE "LR_black_phrase_E_B08_025"
    INDEX 01 00:30:66
  TRACK 26 AUDIO
    TITLE "LR_black_phrase_E_B08_026"
    INDEX 01 00:31:62
  TRACK 27 AUDIO
    TITLE "LR_black_phrase_E_B08_027"
    INDEX 01 00:33:02
  TRACK 28 AUDIO
    TITLE "LR_black_phrase_E_B08_028"
    INDEX 01 00:33:22
  TRACK 29 AUDIO
    TITLE "LR_black_phrase_E_B08_029"
    INDEX 01 00:34:70
  TRACK 30 AUDIO
    TITLE "LR_black_phrase_E_B08_030"
    INDEX 01 00:35:40
  TRACK 31 AUDIO
    TITLE "LR_black_phrase_E_B08_031"
    INDEX 01 00:37:11
  TRACK 32 AUDIO
    TITLE "LR_black_phrase_E_B08_032"
    INDEX 01 00:38:07
  TRACK 33 AUDIO
    TITLE "LR_black_phrase_E_B08_033"
    INDEX 01 00:39:04
  TRACK 34 AUDIO
    TITLE "LR_black_phrase_E_B08_034"
    INDEX 01 00:39:28
  TRACK 35 AUDIO
    TITLE "LR_black_phrase_E_B08_035"
    INDEX 01 00:41:37
  TRACK 36 AUDIO
    TITLE "LR_black_phrase_E_B08_036"
    INDEX 01 00:42:11
  TRACK 37 AUDIO
    TITLE "LR_black_phrase_E_B08_037"
    INDEX 01 00:44:19
  TRACK 38 AUDIO
    TITLE "LR_black_phrase_E_B08_038"
    INDEX 01 00:45:21
  TRACK 39 AUDIO
    TITLE "LR_black_phrase_E_B08_039"
    INDEX 01 00:46:36
  TRACK 40 AUDIO
    TITLE "LR_black_phrase_E_B08_040"
    INDEX 01 00:46:61
  TRACK 41 AUDIO
    TITLE "LR_black_phrase_E_B08_041"
    INDEX 01 00:48:74
  TRACK 42 AUDIO
    TITLE "LR_black_phrase_E_B08_042"
    INDEX 01 00:49:54
  TRACK 43 AUDIO
    TITLE "LR_black_phrase_E_B08_043"
    INDEX 01 00:51:66
  TRACK 44 AUDIO
    TITLE "LR_black_phrase_E_B08_044"
    INDEX 01 00:52:70
  TRACK 45 AUDIO
    TITLE "LR_black_phrase_E_B08_045"
    INDEX 01 00:54:26
  TRACK 46 AUDIO
    TITLE "LR_black_phrase_E_B08_046"
    INDEX 01 00:54:55
  TRACK 47 AUDIO
    TITLE "LR_black_phrase_E_B08_047"
    INDEX 01 00:57:22
  TRACK 48 AUDIO
    TITLE "LR_black_phrase_E_B08_048"
    INDEX 01 00:58:04
  TRACK 49 AUDIO
    TITLE "LR_black_phrase_E_B08_049"
    INDEX 01 01:00:44
  TRACK 50 AUDIO
    TITLE "LR_black_phrase_E_B08_050"
    INDEX 01 01:01:49
  TRACK 51 AUDIO
    TITLE "LR_black_phrase_E_B08_051"
    INDEX 01 01:02:72
  TRACK 52 AUDIO
    TITLE "LR_black_phrase_E_B08_052"
    INDEX 01 01:03:27
  TRACK 53 AUDIO
    TITLE "LR_black_phrase_E_B08_053"
    INDEX 01 01:06:05
  TRACK 54 AUDIO
    TITLE "LR_black_phrase_E_B08_054"
    INDEX 01 01:06:60
  TRACK 55 AUDIO
    TITLE "LR_black_phrase_E_B08_055"
    INDEX 01 01:09:37
  TRACK 56 AUDIO
    TITLE "LR_black_phrase_E_B08_056"
    INDEX 01 01:10:36
  TRACK 57 AUDIO
    TITLE "LR_black_phrase_E_B08_057"
    INDEX 01 01:11:46
  TRACK 58 AUDIO
    TITLE "LR_black_phrase_E_B08_058"
    INDEX 01 01:11:69
  TRACK 59 AUDIO
    TITLE "LR_black_phrase_E_B08_059"
    INDEX 01 01:13:62
  TRACK 60 AUDIO
    TITLE "LR_black_phrase_E_B08_060"
    INDEX 01 01:14:32
  TRACK 61 AUDIO
    TITLE "LR_black_phrase_E_B08_061"
    INDEX 01 01:16:27
  TRACK 62 AUDIO
    TITLE "LR_black_phrase_E_B08_062"
    INDEX 01 01:17:25
  TRACK 63 AUDIO
    TITLE "LR_black_phrase_E_B08_063"
    INDEX 01 01:18:30
  TRACK 64 AUDIO
    TITLE "LR_black_phrase_E_B08_064"
    INDEX 01 01:18:54
  TRACK 65 AUDIO
    TITLE "LR_black_phrase_E_B08_065"
    INDEX 01 01:20:23
  TRACK 66 AUDIO
    TITLE "LR_black_phrase_E_B08_066"
    INDEX 01 01:21:03
  TRACK 67 AUDIO
    TITLE "LR_black_phrase_E_B08_067"
    INDEX 01 01:22:43
  TRACK 68 AUDIO
    TITLE "LR_black_phrase_E_B08_068"
    INDEX 01 01:23:47
  TRACK 69 AUDIO
    TITLE "LR_black_phrase_E_B08_069"
    INDEX 01 01:24:58
  TRACK 70 AUDIO
    TITLE "LR_black_phrase_E_B08_070"
    INDEX 01 01:25:05
  TRACK 71 AUDIO
    TITLE "LR_black_phrase_E_B08_071"
    INDEX 01 01:27:29
  TRACK 72 AUDIO
    TITLE "LR_black_phrase_E_B08_072"
    INDEX 01 01:27:74
  TRACK 73 AUDIO
    TITLE "LR_black_phrase_E_B08_073"
    INDEX 01 01:30:25
  TRACK 74 AUDIO
    TITLE "LR_black_phrase_E_B08_074"
    INDEX 01 01:31:25
  TRACK 75 AUDIO
    TITLE "LR_black_phrase_E_B08_075"
    INDEX 01 01:32:38
  TRACK 76 AUDIO
    TITLE "LR_black_phrase_E_B08_076"
    INDEX 01 01:32:67
  TRACK 77 AUDIO
    TITLE "LR_black_phrase_E_B08_077"
    INDEX 01 01:35:32
  TRACK 78 AUDIO
    TITLE "LR_black_phrase_E_B08_078"
    INDEX 01 01:36:12
  TRACK 79 AUDIO
    TITLE "LR_black_phrase_E_B08_079"
    INDEX 01 01:38:52
  TRACK 80 AUDIO
    TITLE "LR_black_phrase_E_B08_080"
    INDEX 01 01:39:58
  TRACK 81 AUDIO
    TITLE "LR_black_phrase_E_B08_081"
    INDEX 01 01:41:02
  TRACK 82 AUDIO
    TITLE "LR_black_phrase_E_B08_082"
    INDEX 01 01:41:33
  TRACK 83 AUDIO
    TITLE "LR_black_phrase_E_B08_083"
    INDEX 01 01:43:22
  TRACK 84 AUDIO
    TITLE "LR_black_phrase_E_B08_084"
    INDEX 01 01:44:00
  TRACK 85 AUDIO
    TITLE "LR_black_phrase_E_B08_085"
    INDEX 01 01:45:64
  TRACK 86 AUDIO
    TITLE "LR_black_phrase_E_B08_086"
    INDEX 01 01:46:67
  TRACK 87 AUDIO
    TITLE "LR_black_phrase_E_B08_087"
    INDEX 01 01:48:17
  TRACK 88 AUDIO
    TITLE "LR_black_phrase_E_B08_088"
    INDEX 01 01:48:47
  TRACK 89 AUDIO
    TITLE "LR_black_phrase_E_B08_089"
    INDEX 01 01:50:36
  TRACK 90 AUDIO
    TITLE "LR_black_phrase_E_B08_090"
    INDEX 01 01:51:16
  TRACK 91 AUDIO
    TITLE "LR_black_phrase_E_B08_091"
    INDEX 01 01:53:03
  TRACK 92 AUDIO
    TITLE "LR_black_phrase_E_B08_092"
    INDEX 01 01:54:08
  TRACK 93 AUDIO
    TITLE "LR_black_phrase_E_B08_093"
    INDEX 01 01:55:43
  TRACK 94 AUDIO
    TITLE "LR_black_phrase_E_B08_094"
    INDEX 01 01:55:66
  TRACK 95 AUDIO
    TITLE "LR_black_phrase_E_B08_095"
    INDEX 01 01:58:16
  TRACK 96 AUDIO
    TITLE "LR_black_phrase_E_B08_096"
    INDEX 01 01:58:71
  TRACK 97 AUDIO
    TITLE "LR_black_phrase_E_B08_097"
    INDEX 01 02:01:18
  TRACK 98 AUDIO
    TITLE "LR_black_phrase_E_B08_098"
    INDEX 01 02:02:18
  TRACK 99 AUDIO
    TITLE "LR_black_phrase_E_B08_099"
    INDEX 01 02:03:31
  TRACK 100 AUDIO
    TITLE "LR_black_phrase_E_B08_100"
    INDEX 01 02:03:60
  TRACK 101 AUDIO
    TITLE "LR_black_phrase_E_B08_101"
    INDEX 01 02:05:61
  TRACK 102 AUDIO
    TITLE "LR_black_phrase_E_B08_102"
    INDEX 01 02:06:35
  TRACK 103 AUDIO
    TITLE "LR_black_phrase_E_B08_103"
    INDEX 01 02:08:34
  TRACK 104 AUDIO
    TITLE "LR_black_phrase_E_B08_104"
    INDEX 01 02:09:29
  TRACK 105 AUDIO
    TITLE "LR_black_phrase_E_B08_105"
    INDEX 01 02:10:44
  TRACK 106 AUDIO
    TITLE "LR_black_phrase_E_B08_106"
    INDEX 01 02:10:70
  TRACK 107 AUDIO
    TITLE "LR_black_phrase_E_B08_107"
    INDEX 01 02:12:39
  TRACK 108 AUDIO
    TITLE "LR_black_phrase_E_B08_108"
    INDEX 01 02:13:11
  TRACK 109 AUDIO
    TITLE "LR_black_phrase_E_B08_109"
    INDEX 01 02:14:60
  TRACK 110 AUDIO
    TITLE "LR_black_phrase_E_B08_110"
    INDEX 01 02:15:59
  TRACK 111 AUDIO
    TITLE "LR_black_phrase_E_B08_111"
    INDEX 01 02:16:74
  TRACK 112 AUDIO
    TITLE "LR_black_phrase_E_B08_112"
    INDEX 01 02:17:27
  TRACK 113 AUDIO
    TITLE "LR_black_phrase_E_B08_113"
    INDEX 01 02:20:21
  TRACK 114 AUDIO
    TITLE "LR_black_phrase_E_B08_114"
    INDEX 01 02:20:74
  TRACK 115 AUDIO
    TITLE "LR_black_phrase_E_B08_115"
    INDEX 01 02:23:67
  TRACK 116 AUDIO
    TITLE "LR_black_phrase_E_B08_116"
    INDEX 01 02:24:72
  TRACK 117 AUDIO
    TITLE "LR_black_phrase_E_B08_117"
    INDEX 01 02:26:16
  TRACK 118 AUDIO
    TITLE "LR_black_phrase_E_B08_118"
    INDEX 01 02:26:47
  TRACK 119 AUDIO
    TITLE "LR_black_phrase_E_B08_119"
    INDEX 01 02:28:48
  TRACK 120 AUDIO
    TITLE "LR_black_phrase_E_B08_120"
    INDEX 01 02:29:28
  TRACK 121 AUDIO
    TITLE "LR_black_phrase_E_B08_121"
    INDEX 01 02:31:27
  TRACK 122 AUDIO
    TITLE "LR_black_phrase_E_B08_122"
    INDEX 01 02:32:32
  TRACK 123 AUDIO
    TITLE "LR_black_phrase_E_B08_123"
    INDEX 01 02:33:49
  TRACK 124 AUDIO
    TITLE "LR_black_phrase_E_B08_124"
    INDEX 01 02:34:02
  TRACK 125 AUDIO
    TITLE "LR_black_phrase_E_B08_125"
    INDEX 01 02:36:12
  TRACK 126 AUDIO
    TITLE "LR_black_phrase_E_B08_126"
    INDEX 01 02:36:69
  TRACK 127 AUDIO
    TITLE "LR_black_phrase_E_B08_127"
    INDEX 01 02:39:05
  TRACK 128 AUDIO
    TITLE "LR_black_phrase_E_B08_128"
    INDEX 01 02:40:06
  TRACK 129 AUDIO
    TITLE "LR_black_phrase_E_B08_129"
    INDEX 01 02:41:37
  TRACK 130 AUDIO
    TITLE "LR_black_phrase_E_B08_130"
    INDEX 01 02:41:65
  TRACK 131 AUDIO
    TITLE "LR_black_phrase_E_B08_131"
    INDEX 01 02:44:00
  TRACK 132 AUDIO
    TITLE "LR_black_phrase_E_B08_132"
    INDEX 01 02:44:51
  TRACK 133 AUDIO
    TITLE "LR_black_phrase_E_B08_133"
    INDEX 01 02:46:64
  TRACK 134 AUDIO
    TITLE "LR_black_phrase_E_B08_134"
    INDEX 01 02:47:59
  TRACK 135 AUDIO
    TITLE "LR_black_phrase_E_B08_135"
    INDEX 01 02:48:65
  TRACK 136 AUDIO
    TITLE "LR_black_phrase_E_B08_136"
    INDEX 01 02:49:09
  TRACK 137 AUDIO
    TITLE "LR_black_phrase_E_B08_137"
    INDEX 01 02:51:57
  TRACK 138 AUDIO
    TITLE "LR_black_phrase_E_B08_138"
    INDEX 01 02:52:27
  TRACK 139 AUDIO
    TITLE "LR_black_phrase_E_B08_139"
    INDEX 01 02:55:00
  TRACK 140 AUDIO
    TITLE "LR_black_phrase_E_B08_140"
    INDEX 01 02:55:71
  TRACK 141 AUDIO
    TITLE "LR_black_phrase_E_B08_141"
    INDEX 01 02:56:74
  TRACK 142 AUDIO
    TITLE "LR_black_phrase_E_B08_142"
    INDEX 01 02:57:19
  TRACK 143 AUDIO
    TITLE "LR_black_phrase_E_B08_143"
    INDEX 01 02:59:37
  TRACK 144 AUDIO
    TITLE "LR_black_phrase_E_B08_144"
    INDEX 01 03:00:07
  TRACK 145 AUDIO
    TITLE "LR_black_phrase_E_B08_145"
    INDEX 01 03:02:24
  TRACK 146 AUDIO
    TITLE "LR_black_phrase_E_B08_146"
    INDEX 01 03:03:25
  TRACK 147 AUDIO
    TITLE "LR_black_phrase_E_B08_147"
    INDEX 01 03:04:32
  TRACK 148 AUDIO
    TITLE "LR_black_phrase_E_B08_148"
    INDEX 01 03:04:64
  TRACK 149 AUDIO
    TITLE "LR_black_phrase_E_B08_149"
    INDEX 01 03:06:45
  TRACK 150 AUDIO
    TITLE "LR_black_phrase_E_B08_150"
    INDEX 01 03:07:25
  TRACK 151 AUDIO
    TITLE "LR_black_phrase_E_B08_151"
    INDEX 01 03:09:08
  TRACK 152 AUDIO
    TITLE "LR_black_phrase_E_B08_152"
    INDEX 01 03:10:11
  TRACK 153 AUDIO
    TITLE "LR_black_phrase_E_B08_153"
    INDEX 01 03:11:23
  TRACK 154 AUDIO
    TITLE "LR_black_phrase_E_B08_154"
    INDEX 01 03:11:52
  TRACK 155 AUDIO
    TITLE "LR_black_phrase_E_B08_155"
    INDEX 01 03:13:22
  TRACK 156 AUDIO
    TITLE "LR_black_phrase_E_B08_156"
    INDEX 01 03:14:01
  TRACK 157 AUDIO
    TITLE "LR_black_phrase_E_B08_157"
    INDEX 01 03:15:48
  TRACK 158 AUDIO
    TITLE "LR_black_phrase_E_B08_158"
    INDEX 01 03:16:51
  TRACK 159 AUDIO
    TITLE "LR_black_phrase_E_B08_159"
    INDEX 01 03:17:68
  TRACK 160 AUDIO
    TITLE "LR_black_phrase_E_B08_160"
    INDEX 01 03:18:25
  TRACK 161 AUDIO
    TITLE "LR_black_phrase_E_B08_161"
    INDEX 01 03:20:31
  TRACK 162 AUDIO
    TITLE "LR_black_phrase_E_B08_162"
    INDEX 01 03:21:09
  TRACK 163 AUDIO
    TITLE "LR_black_phrase_E_B08_163"
    INDEX 01 03:23:16
  TRACK 164 AUDIO
    TITLE "LR_black_phrase_E_B08_164"
    INDEX 01 03:24:13
  TRACK 165 AUDIO
    TITLE "LR_black_phrase_E_B08_165"
    INDEX 01 03:25:31
  TRACK 166 AUDIO
    TITLE "LR_black_phrase_E_B08_166"
    INDEX 01 03:25:54
  TRACK 167 AUDIO
    TITLE "LR_black_phrase_E_B08_167"
    INDEX 01 03:27:47
  TRACK 168 AUDIO
    TITLE "LR_black_phrase_E_B08_168"
    INDEX 01 03:28:23
  TRACK 169 AUDIO
    TITLE "LR_black_phrase_E_B08_169"
    INDEX 01 03:30:16
  TRACK 170 AUDIO
    TITLE "LR_black_phrase_E_B08_170"
    INDEX 01 03:31:15
  TRACK 171 AUDIO
    TITLE "LR_black_phrase_E_B08_171"
    INDEX 01 03:32:48
  TRACK 172 AUDIO
    TITLE "LR_black_phrase_E_B08_172"
    INDEX 01 03:32:70
  TRACK 173 AUDIO
    TITLE "LR_black_phrase_E_B08_173"
    INDEX 01 03:35:19
  TRACK 174 AUDIO
    TITLE "LR_black_phrase_E_B08_174"
    INDEX 01 03:35:68
  TRACK 175 AUDIO
    TITLE "LR_black_phrase_E_B08_175"
    INDEX 01 03:38:16
  TRACK 176 AUDIO
    TITLE "LR_black_phrase_E_B08_176"
    INDEX 01 03:39:15
  TRACK 177 AUDIO
    TITLE "LR_black_phrase_E_B08_177"
    INDEX 01 03:40:22
  TRACK 178 AUDIO
    TITLE "LR_black_phrase_E_B08_178"
    INDEX 01 03:40:40
  TRACK 179 AUDIO
    TITLE "LR_black_phrase_E_B08_179"
    INDEX 01 03:42:15
  TRACK 180 AUDIO
    TITLE "LR_black_phrase_E_B08_180"
    INDEX 01 03:42:62
  TRACK 181 AUDIO
    TITLE "LR_black_phrase_E_B08_181"
    INDEX 01 03:44:38
